<svg width="16" height="16" viewBox="0 0 16 16" fill="none" xmlns="http://www.w3.org/2000/svg">
<path d="M10.8337 3.45342C10.6663 3.67299 10.7085 3.98674 10.9281 4.1542C12.1203 5.06344 12.8333 6.47215 12.8333 8.00001C12.8333 10.4907 10.9494 12.5413 8.52888 12.8047L8.97978 12.3536C9.17505 12.1583 9.17505 11.8417 8.97978 11.6465C8.80227 11.4689 8.5245 11.4528 8.32876 11.598L8.27268 11.6465L6.93934 12.9798C6.76183 13.1573 6.7457 13.4351 6.89093 13.6308L6.93934 13.6869L8.27268 15.0202C8.46794 15.2155 8.78452 15.2155 8.97978 15.0202C9.1573 14.8427 9.17343 14.5649 9.0282 14.3692L8.97978 14.3131L8.47963 13.8139C11.4769 13.57 13.8333 11.0602 13.8333 8.00001C13.8333 6.15685 12.9721 4.45548 11.5345 3.35905C11.3149 3.1916 11.0012 3.23384 10.8337 3.45342ZM7.02022 0.97979C6.82496 1.17505 6.82496 1.49163 7.02022 1.6869L7.51972 2.18617C4.52273 2.43041 2.16667 4.94007 2.16667 8.00001C2.16667 9.76298 2.95418 11.3983 4.28721 12.4994C4.50011 12.6753 4.81527 12.6453 4.99113 12.4324C5.16699 12.2195 5.13697 11.9043 4.92407 11.7284C3.81863 10.8153 3.16667 9.46148 3.16667 8.00001C3.16667 5.50959 5.05022 3.45909 7.47047 3.19535L7.02022 3.64646C6.82496 3.84172 6.82496 4.1583 7.02022 4.35356C7.21549 4.54883 7.53207 4.54883 7.72733 4.35356L9.06066 3.02023C9.25593 2.82497 9.25593 2.50839 9.06066 2.31312L7.72733 0.97979C7.53207 0.784528 7.21549 0.784528 7.02022 0.97979Z" fill="#FA6736"/>
</svg>
