<svg width="16" height="16" viewBox="0 0 16 16" fill="none" xmlns="http://www.w3.org/2000/svg">
<path d="M6.16667 4.66666C6.44281 4.66666 6.66667 4.89051 6.66667 5.16666C6.66667 5.41769 6.48166 5.62552 6.24055 5.66124L6.16667 5.66666H4.66667C3.378 5.66666 2.33333 6.71133 2.33333 7.99999C2.33333 9.24263 3.30471 10.2584 4.52956 10.3294L4.66667 10.3333H6.16667C6.44281 10.3333 6.66667 10.5572 6.66667 10.8333C6.66667 11.0844 6.48166 11.2922 6.24055 11.3279L6.16667 11.3333H4.66667C2.82572 11.3333 1.33333 9.84094 1.33333 7.99999C1.33333 6.21483 2.73664 4.75742 4.5003 4.67074L4.66667 4.66666H6.16667ZM11.3333 4.66666C13.1743 4.66666 14.6667 6.15904 14.6667 7.99999C14.6667 9.78515 13.2634 11.2426 11.4997 11.3292L11.3333 11.3333H9.83333C9.55719 11.3333 9.33333 11.1095 9.33333 10.8333C9.33333 10.5823 9.51834 10.3745 9.75945 10.3387L9.83333 10.3333H11.3333C12.622 10.3333 13.6667 9.28865 13.6667 7.99999C13.6667 6.75735 12.6953 5.74159 11.4704 5.67062L11.3333 5.66666H9.83333C9.55719 5.66666 9.33333 5.4428 9.33333 5.16666C9.33333 4.91562 9.51834 4.70779 9.75945 4.67208L9.83333 4.66666H11.3333ZM4.66667 7.49999H11.3333C11.6095 7.49999 11.8333 7.72385 11.8333 7.99999C11.8333 8.25312 11.6452 8.46232 11.4012 8.49543L11.3333 8.49999H4.66667C4.39052 8.49999 4.16667 8.27613 4.16667 7.99999C4.16667 7.74686 4.35477 7.53766 4.59882 7.50455L4.66667 7.49999H11.3333H4.66667Z" fill="#1A8CFF"/>
</svg>
