<svg width="18" height="20" viewBox="0 0 18 20" fill="none" xmlns="http://www.w3.org/2000/svg">
<path d="M8.99999 -0.00376892C13.0499 -0.00376892 16.3567 3.19097 16.4958 7.24528L16.5 7.49623V11.5932L17.88 14.7492C17.949 14.9071 17.9847 15.0776 17.9847 15.25C17.9847 15.9404 17.425 16.5 16.7347 16.5L12 16.5015C12 18.1584 10.6568 19.5015 8.99999 19.5015C7.40231 19.5015 6.09633 18.2526 6.00508 16.6778L5.99954 16.4992L1.27485 16.5C1.10351 16.5 0.934005 16.4648 0.776852 16.3965C0.14365 16.1215 -0.146699 15.3852 0.12834 14.752L1.49999 11.5942V7.49612C1.50059 3.34133 4.85208 -0.00376892 8.99999 -0.00376892ZM10.4995 16.4992L7.49999 16.5015C7.49999 17.3299 8.17156 18.0015 8.99999 18.0015C9.77969 18.0015 10.4204 17.4066 10.4931 16.646L10.4995 16.4992ZM8.99999 1.49623C5.67983 1.49623 3.00047 4.17048 2.99999 7.49623V11.9059L1.65601 15H16.3525L15 11.9068L15.0001 7.50909L14.9964 7.28389C14.8853 4.05041 12.2416 1.49623 8.99999 1.49623Z" fill="#121212"/>
</svg>
